<svg xmlns="http://www.w3.org/2000/svg" width="430" height="430" style="width:100%;height:100%;transform:translate3d(0,0,0)" viewBox="0 0 430 430"><defs><clipPath id="a"><path d="M0 0h430v430H0z"/></clipPath><clipPath id="g"><path d="M0 0h430v430H0z"/></clipPath><clipPath id="f"><path d="M0 0h430v430H0z"/></clipPath><clipPath id="e"><path d="M0 0h430v430H0z"/></clipPath><clipPath id="d"><path d="M0 0h430v430H0z"/></clipPath><clipPath id="c"><path d="M0 0h430v430H0z"/></clipPath><clipPath id="b"><path d="M0 0h430v430H0z"/></clipPath></defs><g fill="none" clip-path="url(#a)"><g clip-path="url(#b)" style="display:none"><path class="secondary"/><path class="primary"/></g><g stroke-linecap="round" stroke-linejoin="round" stroke-width="12.6" clip-path="url(#c)" style="display:block"><path stroke="#FFF" d="M269.963 183.14c0 30.355-24.608 54.96-54.964 54.96-30.355 0-54.964-24.605-54.964-54.96 0-30.356 24.609-54.964 54.964-54.964 30.356 0 54.964 24.608 54.964 54.964z" class="secondary"/><path stroke="#E8682F" d="M104.158 220.138c-3.77-11.665-5.978-24.07-5.978-37.005 0-67.064 56.525-120.929 124.572-116.547 57.69 3.714 104.59 50.274 108.745 107.933 1.085 15.05-.823 29.509-4.84 43.001C307.902 280.475 215.01 373.2 215.01 373.2s-87.437-80.619-110.852-153.062z" class="primary"/></g><g clip-path="url(#d)" style="display:none"><path class="secondary" style="display:none"/><g style="display:none"><path class="secondary"/><path class="primary"/></g></g><g clip-path="url(#e)" style="display:none"><path class="secondary" style="display:none"/><path class="primary" style="display:none"/><path class="secondary" style="display:none"/></g><g clip-path="url(#f)" style="display:none"><path class="primary" style="display:none"/><path class="secondary" style="display:none"/></g><g clip-path="url(#g)" style="display:none"><path class="secondary" style="display:none"/><path class="primary" style="display:none"/><path class="secondary" style="display:none"/></g></g></svg>